<svg width="30" height="40" xmlns="http://www.w3.org/2000/svg">
 <g id="Layer_1">
  <title>Layer 1</title>
  <path stroke="#000" id="svg_2" d="m14.52485,7.12913c-7.45589,0 -13.5,5.81965 -13.5,12.99954c0,2.4531 0.71455,4.74564 1.94398,6.70284l-1.94398,5.47301l5.41251,-1.7834c2.25545,1.62942 5.04999,2.60801 8.08749,2.60801c7.45591,0 13.5,-5.8206 13.5,-13.00046s-6.04409,-12.99954 -13.5,-12.99954zm0.94702,20.35037l-1.89883,0l0,-2.3388l1.89883,0l0,2.3388zm0,-4.83632l0,0.77362l-1.89883,0l0,-0.95215c0,-2.87346 2.5468,-3.32874 2.5468,-5.36907c0,-0.93139 -0.64797,-1.6455 -1.49751,-1.6455c-0.87952,0 -1.65182,0.8322 -1.65182,0.8322l-1.08019,-1.72484c0,0 1.06473,-1.42728 2.90159,-1.42728c1.74543,0 3.36543,1.3876 3.36543,3.72548c0.00093,3.27209 -2.68547,3.64803 -2.68547,5.78754l0,0z" fill-opacity="0.96" stroke-width="0" fill="#c68707"/>
 </g>
</svg>